<?xml version="1.0" encoding="utf-8"?>
<!-- Generator: Adobe Illustrator 25.0.1, SVG Export Plug-In . SVG Version: 6.00 Build 0)  -->
<svg version="1.1" id="レイヤー_1" xmlns="http://www.w3.org/2000/svg" xmlns:xlink="http://www.w3.org/1999/xlink" x="0px"
	 y="0px" viewBox="0 0 130 130" style="enable-background:new 0 0 130 130;" xml:space="preserve">
<style type="text/css">
	.st0{fill:#FFFFFF;}
	.st1{opacity:0;}
	.st2{fill:none;stroke:#707070;}
</style>
<g id="グループ_51" transform="translate(-2284 -1550)">
	<g id="グループ_41" transform="translate(1302.483 1621.742)">
		<g id="グループ_37" transform="translate(1000.517 -38.742)">
			<path id="パス_20" class="st0" d="M45.8,38.4L89.3,1.2c-0.9-0.8-2-1.2-3.2-1.2H5.5C4.3,0,3.2,0.4,2.3,1.2L45.8,38.4z"/>
			<g id="グループ_36" transform="translate(0 7.047)">
				<path id="パス_21" class="st0" d="M91.4,51.5c0.1-0.5,0.2-1,0.2-1.5V0l-26,22.3L91.4,51.5z"/>
				<path id="パス_22" class="st0" d="M61,26.1L45.8,39.2L30.5,26.1l-26.5,30c0.5,0.2,0.9,0.2,1.4,0.2h80.6c0.5,0,1-0.1,1.4-0.2
					L61,26.1z"/>
				<path id="パス_23" class="st0" d="M26,22.3L0,0v50c0,0.5,0.1,1,0.2,1.5L26,22.3z"/>
			</g>
		</g>
	</g>
	<g id="長方形_16" transform="translate(2284 1550)" class="st1">
		<rect class="st0" width="130" height="130"/>
		<rect x="0.5" y="0.5" class="st2" width="129" height="129"/>
	</g>
</g>
</svg>
