<svg xmlns="http://www.w3.org/2000/svg" width="130" height="130" viewBox="0 0 130 130">
  <g id="グループ_49" data-name="グループ 49" transform="translate(-2485 -1627)">
    <g id="グループ_45" data-name="グループ 45" transform="translate(2932.375 1383.839)">
      <path id="パス_6" data-name="パス 6" d="M-382.367,348.159a40.013,40.013,0,0,1-40-39.28,39.955,39.955,0,0,1,39.947-40.719,39.943,39.943,0,0,1,40.04,39.3A40.02,40.02,0,0,1-382.367,348.159Zm.732-3.545a36.469,36.469,0,0,0,35.707-38.4,36.529,36.529,0,0,0-37.382-34.545,36.531,36.531,0,0,0-35.513,38.368A36.464,36.464,0,0,0-381.635,344.614Z"/>
      <path id="パス_7" data-name="パス 7" d="M-373.937,352.305a36.464,36.464,0,0,1-37.188-34.573,36.531,36.531,0,0,1,35.513-38.368,36.529,36.529,0,0,1,37.382,34.545A36.469,36.469,0,0,1-373.937,352.305Zm3.318-49.259,10.847,30.371c.137-.328.212-.493.276-.661,1.227-3.263,2.467-6.52,3.672-9.792.923-2.506,2.024-4.949,2.008-7.726-.023-3.742-.579-7.334-2.659-10.518a11.633,11.633,0,0,1-1.907-5.537c-.289-3.524,1.078-6.012,4.132-7.415-6.136-5.7-16.551-9.277-27.408-6.821A31.363,31.363,0,0,0-401.393,298.8h11.542v4.252h-4.577l10.749,30.083c.108-.219.174-.329.218-.447q3.595-9.612,7.17-19.231a1.648,1.648,0,0,0-.03-1.03c-.977-2.8-2.012-5.58-2.968-8.387-.254-.746-.563-1.075-1.411-1.022-1.42.089-2.85.025-4.336.025v-4.214h19.394v4.219Zm-3.362,15.894L-384.1,345.994c4.232,2.071,15.86,1.892,19.682-.279Zm-14.826,25.166-14.687-41.12C-410.171,316.455-405.109,336.221-388.807,344.105Zm29.766-.9a30.676,30.676,0,0,0,15.248-20.344,30.547,30.547,0,0,0-1.25-18.156c-.82,2.639-1.526,5.336-2.491,7.937-3.173,8.557-6.441,17.079-9.668,25.616C-357.823,339.906-358.428,341.559-359.041,343.208Z" transform="translate(-7.699 -7.691)" fill="#fff"/>
      <path id="パス_8" data-name="パス 8" d="M-349.136,313.609h4.976V309.39h-19.394V313.6c1.486,0,2.916.065,4.336-.025.848-.053,1.157.276,1.411,1.022.957,2.807,1.991,5.587,2.968,8.387a1.648,1.648,0,0,1,.03,1.03q-3.561,9.624-7.17,19.231c-.044.118-.11.228-.218.447l-10.749-30.083h4.577v-4.252H-379.91a31.363,31.363,0,0,1,19.735-13.851c10.857-2.456,21.272,1.124,27.408,6.821-3.054,1.4-4.421,3.89-4.132,7.415a11.633,11.633,0,0,0,1.907,5.537c2.079,3.184,2.636,6.777,2.659,10.518.017,2.777-1.085,5.22-2.008,7.726-1.2,3.271-2.446,6.529-3.672,9.791-.064.168-.138.332-.276.661Z" transform="translate(-29.182 -18.254)"/>
      <path id="パス_9" data-name="パス 9" d="M-314.505,405.907l9.564,26.776c-3.822,2.171-15.45,2.35-19.682.279Z" transform="translate(-67.174 -94.658)"/>
      <path id="パス_10" data-name="パス 10" d="M-378.223,396.025c-16.3-7.884-21.364-27.65-14.687-41.12Z" transform="translate(-18.283 -59.61)"/>
      <path id="パス_11" data-name="パス 11" d="M-244.517,398.912c.613-1.649,1.218-3.3,1.84-4.947,3.227-8.537,6.5-17.059,9.668-25.616.964-2.6,1.67-5.3,2.491-7.937a30.547,30.547,0,0,1,1.25,18.156A30.676,30.676,0,0,1-244.517,398.912Z" transform="translate(-122.223 -63.394)"/>
    </g>
    <g id="長方形_17" data-name="長方形 17" transform="translate(2485 1627)" fill="#fff" stroke="#707070" stroke-width="1" opacity="0">
      <rect width="130" height="130" stroke="none"/>
      <rect x="0.5" y="0.5" width="129" height="129" fill="none"/>
    </g>
  </g>
</svg>
